<?xml version="1.0" standalone="no"?>
<!DOCTYPE svg PUBLIC "-//W3C//DTD SVG 20010904//EN"
 "http://www.w3.org/TR/2001/REC-SVG-20010904/DTD/svg10.dtd">
<svg version="1.0" xmlns="http://www.w3.org/2000/svg"
 width="120.000000pt" height="56.000000pt" viewBox="0 0 120.000000 56.000000"
 preserveAspectRatio="xMidYMid meet">

<g transform="translate(0.000000,56.000000) scale(0.100000,-0.100000)"
fill="#000000" stroke="none">
<path d="M0 270 l0 -270 95 0 95 0 0 35 c0 35 0 35 -45 35 l-45 0 0 200 0 200
45 0 c45 0 45 0 45 35 l0 35 -95 0 -95 0 0 -270z"/>
<path d="M1000 505 c0 -35 0 -35 45 -35 l45 0 0 -200 0 -200 -45 0 c-45 0 -45
0 -45 -35 l0 -35 95 0 95 0 0 270 0 270 -95 0 -95 0 0 -35z"/>
<path d="M348 481 c-50 -16 -95 -51 -108 -82 -19 -45 -3 -98 38 -125 30 -21
177 -63 185 -53 2 2 7 21 10 41 5 36 5 37 -36 43 -89 15 -123 56 -75 89 25 18
90 21 117 6 16 -8 19 -4 24 33 3 23 4 43 2 45 -9 9 -132 11 -157 3z"/>
<path d="M626 449 c-3 -13 -19 -103 -36 -199 -17 -96 -32 -185 -35 -197 -5
-23 -5 -23 122 -23 150 0 193 10 227 51 50 59 24 148 -47 167 l-32 9 32 16
c38 20 53 44 53 84 0 70 -58 104 -187 111 -90 5 -92 4 -97 -19z m158 -72 c26
-19 18 -68 -14 -84 -14 -7 -46 -13 -72 -13 l-48 0 0 55 0 55 58 0 c32 0 66 -6
76 -13z m22 -182 c8 -10 14 -29 14 -42 0 -31 -50 -53 -120 -53 l-50 0 0 61 0
61 71 -4 c55 -3 74 -8 85 -23z"/>
<path d="M220 163 c0 -30 37 -81 72 -99 18 -9 57 -17 88 -18 l54 -1 7 38 6 37
-39 0 c-31 0 -46 7 -70 30 -24 24 -38 30 -74 30 -35 0 -44 -3 -44 -17z"/>
</g>
</svg>
