<?xml version="1.0" standalone="no"?>
<!DOCTYPE svg PUBLIC "-//W3C//DTD SVG 20010904//EN"
 "http://www.w3.org/TR/2001/REC-SVG-20010904/DTD/svg10.dtd">
<svg version="1.0" xmlns="http://www.w3.org/2000/svg"
 width="1280.000000pt" height="849.000000pt" viewBox="0 0 1280.000000 849.000000"
 preserveAspectRatio="xMidYMid meet">

<g transform="translate(0.000000,849.000000) scale(0.100000,-0.100000)"
fill="#000000" stroke="none">
<path d="M0 8481 c0 -11 671 -11 780 -1 43 4 -105 8 -352 9 -245 0 -428 -3
-428 -8z"/>
<path d="M2666 8472 c49 -39 58 -105 22 -155 -13 -18 -55 -67 -94 -110 -76
-82 -132 -178 -158 -267 -8 -30 -20 -125 -25 -210 -11 -166 -26 -264 -65 -430
-31 -130 -41 -242 -27 -295 73 -285 84 -382 56 -525 -12 -64 -16 -116 -12
-173 5 -79 6 -82 46 -119 37 -36 59 -73 48 -84 -2 -2 -34 13 -70 34 -64 38
-69 39 -149 36 -46 -1 -130 -9 -188 -18 -234 -37 -256 -38 -419 -32 -223 9
-263 -3 -422 -121 -68 -51 -156 -106 -219 -136 -190 -91 -218 -119 -338 -333
-37 -66 -74 -113 -136 -174 -118 -117 -138 -160 -171 -369 -20 -131 -35 -191
-74 -295 -62 -166 -59 -156 -66 -256 -7 -109 -14 -148 -30 -180 -16 -30 -82
-67 -137 -75 l-38 -6 0 -2089 0 -2090 2859 0 2859 0 5 27 c19 107 41 178 71
228 33 54 34 63 41 184 8 143 24 246 58 376 14 50 27 110 31 135 8 51 30 90
51 90 18 0 30 39 16 53 -15 15 -14 62 2 75 6 6 24 13 39 17 24 6 27 11 21 33
-3 14 -16 35 -28 46 -11 12 -19 29 -17 39 4 18 17 21 70 18 45 -3 40 16 -7 29
-58 15 -64 28 -56 114 7 75 0 129 -32 226 -8 25 -15 63 -16 85 -1 28 -7 42
-20 47 -18 8 -18 9 2 34 22 28 20 47 -4 37 -10 -3 -15 2 -15 17 0 13 8 24 19
27 33 8 37 73 5 73 -8 0 -14 5 -14 10 0 6 9 10 20 10 11 0 20 6 20 14 0 16 13
19 124 37 54 8 73 15 63 21 -9 5 -35 4 -61 -2 -48 -10 -96 0 -96 21 0 8 -4 8
-15 -1 -9 -7 -18 -10 -21 -8 -9 10 48 48 72 48 12 0 26 5 30 12 4 7 3 8 -4 4
-18 -11 -14 9 7 33 11 13 25 19 35 15 22 -8 21 15 -1 32 -16 11 -14 14 20 29
21 9 68 19 103 22 36 3 67 10 70 15 5 8 -131 4 -191 -6 -16 -3 -44 -7 -62 -9
-18 -2 -39 -10 -48 -17 -8 -7 -19 -10 -22 -6 -4 4 -1 11 7 17 11 7 7 8 -12 3
-22 -5 -28 -3 -28 10 0 9 6 16 13 17 6 0 1 5 -12 10 -18 7 -27 6 -33 -3 -5 -9
-8 -5 -8 11 0 19 -4 22 -22 18 -19 -5 -23 -2 -23 18 0 14 5 25 12 25 7 0 10 7
6 16 -5 12 -2 15 13 11 23 -7 49 10 58 41 4 12 14 22 22 22 8 0 14 9 14 21 0
15 5 19 15 15 8 -3 15 -2 15 3 0 10 71 32 82 25 4 -3 8 0 8 7 0 9 -17 10 -62
5 -34 -3 -64 -9 -67 -14 -3 -4 -21 -8 -38 -9 -24 -2 -33 2 -33 13 0 8 4 13 9
10 5 -3 12 6 15 20 4 14 26 44 50 67 59 58 65 76 20 70 -19 -3 -41 1 -49 7 -8
7 -22 10 -30 6 -10 -3 -13 -2 -10 5 4 6 -1 17 -11 24 -16 12 -16 16 -5 24 11
7 10 10 -4 19 -10 5 -20 23 -21 41 -2 17 -13 40 -23 50 -19 19 -20 19 -38 -7
-10 -15 -21 -34 -25 -42 -6 -13 -7 -13 -7 0 -1 8 9 31 20 50 l21 35 -21 -19
c-11 -10 -40 -59 -63 -107 -24 -49 -46 -89 -50 -89 -5 0 -9 37 -10 83 -1 68
-2 75 -8 37 l-6 -45 -5 35 c-2 19 -8 -35 -12 -120 -4 -85 -5 -171 -2 -190 3
-19 8 -52 11 -72 l5 -38 -1513 -1 c-832 -1 -1501 -4 -1485 -6 15 -2 27 -8 27
-12 0 -4 20 -32 45 -62 58 -70 54 -64 106 -139 127 -183 245 -393 292 -520 35
-95 52 -227 37 -289 -15 -62 -56 -107 -107 -117 -21 -4 -98 -3 -170 3 -204 17
-248 47 -297 203 -13 41 -41 111 -61 155 -36 79 -89 207 -147 360 -39 101 -50
125 -113 260 -29 61 -64 142 -79 180 -37 92 -81 194 -122 282 -51 109 -73 171
-89 250 -23 118 0 263 41 263 10 0 51 -26 93 -59 42 -32 87 -62 101 -66 69
-22 153 -100 181 -170 9 -22 31 -80 49 -130 18 -49 36 -92 41 -95 4 -3 10 -32
12 -65 2 -33 4 154 6 415 1 261 3 518 5 570 2 52 1 145 -3 205 -5 61 -9 95 -9
77 -2 -35 -25 -67 -41 -57 -5 3 -12 1 -16 -5 -11 -18 -25 -11 -71 39 -63 67
-77 97 -76 159 1 60 27 113 89 181 21 22 46 50 55 62 22 29 34 82 19 87 -6 2
-11 8 -11 14 0 24 -118 158 -139 158 -5 0 -13 10 -17 23 -15 49 -56 127 -67
127 -37 0 -140 139 -157 212 -20 88 -3 177 42 225 91 97 296 8 381 -166 13
-26 17 -62 17 -154 0 -66 2 -118 4 -116 4 4 16 1209 16 1597 l0 212 388 2
c213 0 367 4 343 7 -37 5 -47 11 -62 41 -26 49 -25 158 2 236 14 42 22 94 26
179 2 65 9 127 14 137 5 10 12 53 15 95 l5 78 -50 80 c-83 131 -114 200 -114
258 -2 95 47 131 190 141 91 6 118 23 137 87 13 44 13 54 -4 115 -22 76 -54
134 -111 201 -22 26 -59 70 -82 97 -67 79 -88 113 -100 171 l-11 55 -236 0
c-224 0 -234 -1 -214 -18z m-189 -2388 c-3 -3 -12 -4 -19 -1 -8 3 -5 6 6 6 11
1 17 -2 13 -5z m30 -26 c-3 -7 -5 -2 -5 12 0 14 2 19 5 13 2 -7 2 -19 0 -25z
m-322 -1550 c19 -18 14 -75 -10 -123 -27 -55 -75 -92 -115 -90 -34 2 -70 34
-70 63 0 37 28 88 56 101 13 6 27 17 30 25 3 8 11 13 18 10 7 -3 18 1 24 9 12
14 55 17 67 5z m3722 -1984 c-3 -3 -12 -4 -19 -1 -8 3 -5 6 6 6 11 1 17 -2 13
-5z m-547 -144 c-19 -4 -30 -8 -24 -9 20 -2 23 -39 5 -55 -10 -9 -23 -16 -29
-16 -7 0 -12 -3 -12 -7 0 -5 -51 -7 -114 -5 -70 1 -126 -2 -143 -10 -15 -6
-32 -10 -38 -8 -56 17 -134 14 -156 -6 -10 -9 -22 -13 -27 -10 -5 3 -15 -12
-22 -34 -7 -21 -19 -41 -26 -44 -9 -4 -14 -22 -14 -54 0 -60 25 -101 95 -154
70 -53 122 -68 232 -68 99 0 166 -18 183 -49 9 -18 -15 -41 -45 -41 -8 0 -15
-4 -15 -8 0 -10 -58 -35 -86 -37 -11 -1 -33 -5 -47 -9 -15 -3 -27 -3 -27 1 0
5 -15 8 -33 9 -36 0 -127 25 -127 35 0 5 -109 -6 -114 -13 -2 -2 -13 -24 -25
-50 -20 -42 -21 -53 -12 -103 6 -31 23 -74 40 -98 30 -44 27 -43 204 -88 54
-13 71 -33 55 -64 -22 -40 -71 -53 -123 -30 -16 7 -41 18 -55 23 -41 17 -110
25 -110 13 0 -6 -10 -32 -21 -57 -19 -40 -20 -50 -10 -102 6 -31 23 -73 36
-94 28 -41 122 -116 195 -153 25 -13 79 -58 120 -100 87 -88 219 -203 270
-234 19 -11 29 -21 22 -21 -7 0 6 -27 29 -60 40 -58 46 -98 10 -66 -10 9 -21
12 -27 7 -5 -5 -69 -4 -144 1 -74 5 -326 10 -560 11 -453 2 -467 3 -536 53
-57 42 -120 182 -149 334 -8 47 -20 101 -25 120 -8 33 -16 96 -40 340 -5 52
-10 161 -10 242 0 168 -9 221 -54 322 -36 78 -51 133 -61 216 -5 51 -4 57 23
88 l30 32 100 0 c55 0 113 -5 128 -11 42 -15 213 -23 259 -11 22 6 65 18 95
27 30 10 78 22 105 27 28 6 66 17 85 24 19 8 46 16 59 19 13 2 38 9 55 14 17
6 52 9 77 8 39 -2 44 -4 30 -14 -21 -16 -15 -16 64 2 37 9 108 20 159 24 116
10 344 11 296 1z m730 -135 c0 -10 -10 -15 -26 -15 -22 0 -25 2 -14 15 7 8 19
15 26 15 8 0 14 -7 14 -15z m-50 -55 c0 -5 -6 -10 -14 -10 -8 0 -18 5 -21 10
-3 6 3 10 14 10 12 0 21 -4 21 -10z m-90 -221 c0 -5 -7 -9 -15 -9 -8 0 -15 7
-15 15 0 9 6 12 15 9 8 -4 15 -10 15 -15z m-2561 -1409 c29 -5 70 -22 91 -37
96 -69 120 -256 42 -312 -21 -14 -53 -21 -132 -26 -58 -4 -114 -12 -124 -17
-48 -25 -158 -39 -311 -40 -304 -1 -520 4 -555 13 -19 4 -52 11 -73 14 -113
18 -174 180 -106 279 63 92 160 115 504 117 132 1 285 4 340 8 175 11 270 11
324 1z m2390 -271 c-7 -24 -12 -47 -11 -51 1 -5 -2 -8 -6 -8 -18 0 -39 -58
-49 -130 -5 -35 -8 -40 -14 -25 -15 39 -9 100 15 152 26 54 67 116 73 109 3
-2 -1 -24 -8 -47z"/>
<path d="M4706 8203 c5 -159 9 -365 8 -458 -1 -148 -4 -176 -21 -215 -29 -64
-75 -106 -166 -151 -108 -55 -150 -97 -260 -262 -116 -176 -138 -215 -165
-297 -27 -83 -72 -259 -72 -281 0 -10 -8 -20 -17 -22 -10 -3 475 -5 1077 -4
602 0 1082 2 1067 4 -23 4 -28 9 -24 24 3 10 2 19 -1 19 -4 0 -7 10 -8 23 -1
12 -6 54 -12 92 -19 114 -14 220 12 300 20 59 27 70 48 73 21 3 31 -7 69 -75
25 -43 53 -96 63 -118 24 -51 96 -273 98 -302 1 -13 7 -23 13 -24 5 0 1 -4
-10 -9 -11 -5 259 -8 630 -8 358 0 637 3 620 7 l-30 6 -3 95 c-4 100 -2 106
68 295 12 33 29 112 36 175 9 67 23 132 34 156 48 98 128 111 269 44 56 -27
113 -45 166 -54 105 -16 154 -40 171 -82 19 -46 18 -70 -12 -160 -18 -57 -25
-96 -23 -139 3 -55 -7 -171 -18 -220 -15 -66 -20 -95 -14 -96 3 0 -7 -7 -24
-14 -26 -12 31 -14 428 -15 l457 0 0 -2025 c0 -1612 -3 -2026 -12 -2030 -7 -2
-472 -6 -1033 -10 -560 -3 -1021 -8 -1024 -11 -2 -2 -2 -5 0 -7 2 -2 45 -34
94 -72 243 -186 716 -624 869 -805 126 -148 171 -219 171 -265 -1 -51 -13 -97
-24 -90 -5 3 -12 -8 -16 -25 -4 -16 -11 -30 -16 -30 -5 0 -9 -6 -9 -12 0 -7
-6 -25 -14 -39 -12 -23 -27 -70 -31 -94 -4 -30 -18 -65 -26 -65 -5 0 -9 -7 -9
-15 0 -8 -4 -15 -9 -15 -5 0 -9 -10 -9 -22 -2 -36 -7 -53 -23 -79 -19 -30 -23
-77 -8 -95 6 -7 8 -18 4 -24 -4 -6 -9 -26 -12 -43 -3 -18 -10 -35 -16 -39 -8
-5 -9 -11 -2 -15 6 -5 11 -24 11 -43 1 -19 0 -29 -3 -22 -7 18 -32 14 -31 -5
0 -10 -1 -25 -3 -33 -2 -8 2 -14 9 -12 21 4 13 -13 -10 -23 -22 -10 -31 -40
-18 -60 8 -12 -14 -58 -23 -48 -4 3 -7 1 -7 -5 0 -7 4 -12 9 -12 14 0 7 -30
-10 -41 -11 -7 -10 -9 5 -9 18 0 19 -1 3 -12 -24 -18 -38 -72 -24 -88 9 -10 9
-11 1 -7 -11 6 -25 -25 -29 -64 -1 -9 -5 -21 -9 -27 -3 -6 -1 -14 4 -17 8 -5
6 -13 -4 -24 -19 -21 -11 -31 23 -30 14 0 21 3 14 5 -9 4 -8 17 4 52 8 26 15
55 15 65 -1 23 16 22 20 -2 2 -16 7 -17 28 -8 14 5 115 11 225 12 213 2 314
-3 280 -15 -14 -5 0 -10 43 -15 68 -8 94 -25 38 -25 -19 0 -36 -6 -38 -12 -4
-10 -69 -14 -262 -19 -168 -3 -260 -9 -264 -16 -4 -6 -16 -13 -27 -16 -11 -2
1070 -5 2403 -6 l2422 -1 0 2186 0 2186 -137 -4 c-107 -4 -149 -9 -189 -25
-45 -18 -119 -64 -134 -85 -3 -4 -26 -16 -50 -27 -82 -37 -232 -21 -329 36
-24 14 -79 57 -123 97 -44 39 -117 104 -161 144 -45 40 -104 84 -132 99 -27
14 -51 29 -53 34 -2 5 -19 9 -38 9 -37 0 -35 6 -39 -110 -4 -129 -72 -185
-260 -214 -141 -22 -185 -39 -234 -91 -23 -24 -41 -48 -41 -54 0 -15 -35 -31
-68 -31 -16 0 -74 23 -128 51 -86 44 -105 50 -143 46 -24 -3 -51 -13 -61 -23
-19 -21 -46 -102 -60 -184 -13 -78 -26 -137 -43 -195 -20 -70 -70 -262 -97
-375 -13 -52 -33 -117 -45 -145 -12 -27 -25 -57 -28 -65 -4 -8 -20 -37 -37
-65 -16 -27 -34 -59 -39 -70 -22 -50 -83 -86 -124 -74 -57 16 -116 97 -117
160 0 28 38 110 72 152 13 16 38 47 56 69 31 39 73 118 86 164 4 12 2 33 -3
46 -9 24 -13 25 -66 22 -31 -2 -65 -9 -75 -14 -27 -15 -117 -12 -148 4 -39 20
-88 93 -105 156 -22 85 -76 207 -111 250 -70 89 -80 103 -93 143 -16 46 -11
88 17 151 52 119 51 163 -6 232 -46 57 -182 151 -252 177 -31 11 -60 25 -64
31 -5 7 -8 6 -9 -4 0 -10 -3 -8 -9 5 -11 25 -12 136 -2 151 6 10 49 34 197
111 54 28 118 53 135 53 39 0 106 -41 119 -74 8 -17 40 -86 72 -153 63 -131
99 -172 167 -190 77 -22 157 7 191 68 12 21 22 41 21 44 0 3 7 19 15 35 8 16
15 33 15 37 0 5 5 15 12 23 7 8 21 31 31 50 10 19 27 51 38 70 15 28 19 55 19
135 0 116 -17 207 -53 285 -39 84 -83 123 -179 161 -71 28 -112 61 -153 122
-35 52 -41 76 -75 287 -7 41 -47 217 -90 390 -43 173 -88 358 -99 410 -26 113
-76 270 -100 314 -10 17 -33 55 -51 85 -19 31 -33 65 -32 83 1 40 40 94 114
159 113 99 162 162 232 297 69 133 77 164 82 324 5 205 26 258 124 313 42 23
118 24 725 6 215 -6 620 -18 900 -26 647 -19 1057 -33 1163 -41 l82 -6 0 86 0
86 -3216 0 c-2141 0 -3213 -3 -3209 -10 3 -5 13 -10 21 -10 8 0 40 -8 72 -19
31 -10 100 -24 152 -31 107 -15 132 -27 167 -84 22 -35 25 -48 21 -105 -6 -78
-32 -135 -95 -206 l-45 -49 7 -83 c6 -77 5 -85 -24 -146 -29 -60 -45 -78 -154
-173 -15 -13 -32 -24 -37 -24 -6 0 -10 -4 -10 -9 0 -5 -16 -26 -35 -47 -19
-21 -35 -41 -35 -45 0 -4 -36 -44 -80 -88 -44 -45 -80 -85 -80 -89 0 -5 -10
-18 -23 -30 -25 -24 -45 -19 -24 6 10 13 9 15 -6 9 -14 -5 -16 -3 -9 11 5 9 7
23 5 30 -3 7 0 19 7 27 6 8 13 25 14 39 2 17 28 50 70 91 37 35 65 69 61 75
-3 5 -2 10 3 10 19 0 32 65 32 164 0 83 4 107 20 134 11 17 24 32 29 32 5 0
16 6 23 13 19 19 108 67 124 67 8 0 14 3 14 8 0 4 19 16 42 27 26 12 36 21 25
23 -9 2 -14 9 -11 15 13 35 -91 187 -156 228 -69 43 -215 42 -286 -1 -87 -54
-113 -109 -129 -270 -7 -69 -33 -135 -72 -185 -137 -174 -175 -204 -257 -205
-49 0 -108 38 -129 83 -20 43 -26 107 -16 165 9 43 63 225 109 362 10 30 21
75 25 99 9 67 41 128 76 147 22 11 64 16 146 18 70 2 118 7 125 14 9 9 -150
12 -671 12 l-683 0 8 -287z m4284 -673 c41 -49 143 -152 193 -196 53 -45 59
-71 25 -107 -43 -45 -65 -50 -207 -49 -170 2 -203 11 -261 71 -53 55 -65 74
-80 130 -12 46 -1 81 27 81 9 0 30 4 47 10 17 5 43 12 58 15 14 3 45 23 69 46
36 35 47 40 73 35 17 -3 42 -19 56 -36z m-3256 -922 c15 -18 27 -37 27 -43 1
-5 5 -18 10 -27 9 -16 3 -18 -65 -18 l-75 0 3 34 c3 42 31 86 54 86 10 0 31
-15 46 -32z m6292 -3226 c32 -47 48 -156 49 -327 0 -130 -2 -150 -16 -153 -10
-2 -21 8 -29 28 -7 16 -16 30 -20 30 -14 0 -59 116 -69 180 -20 129 -18 180
14 268 8 23 48 8 71 -26z m84 -603 c0 -6 11 -35 24 -63 37 -79 48 -178 40
-361 -6 -155 -6 -163 21 -260 33 -119 39 -259 15 -312 -8 -18 -18 -33 -22 -33
-5 0 -8 -6 -8 -14 0 -8 -13 -29 -29 -46 -23 -25 -34 -30 -51 -25 l-23 7 8 192
c11 241 11 343 3 379 -10 43 -40 131 -48 142 -22 33 -19 238 5 338 10 43 22
80 26 83 5 2 5 12 2 22 -3 9 4 5 15 -10 12 -14 22 -32 22 -39z m-3565 -1074
c103 -23 245 -84 360 -155 88 -54 133 -66 203 -53 62 12 227 11 333 -2 45 -5
78 -4 103 5 94 31 197 5 247 -62 49 -65 89 -200 89 -299 0 -110 -56 -226 -135
-281 -47 -32 -65 -34 -94 -10 -17 14 -24 35 -32 107 -5 49 -19 128 -31 175
-17 70 -27 91 -57 121 -39 38 -60 42 -136 20 -22 -6 -92 -16 -155 -21 -147
-13 -158 -15 -200 -28 -189 -58 -301 -34 -481 101 -46 35 -104 87 -129 115
-24 29 -52 55 -62 58 -10 3 -30 21 -44 40 -25 32 -26 36 -13 80 16 53 31 68
85 89 38 14 86 14 149 0z m1095 -972 c47 -43 99 -74 158 -94 83 -28 222 -31
547 -10 326 20 558 18 750 -8 443 -61 743 -85 788 -63 12 6 45 13 72 16 28 2
82 11 120 19 84 18 172 28 155 17 -7 -4 3 -10 26 -15 22 -4 42 -12 46 -18 6
-9 11 -8 17 3 14 21 20 11 37 -61 8 -35 19 -77 24 -94 17 -56 14 -99 -9 -144
-18 -34 -20 -45 -10 -52 18 -11 -18 -51 -40 -45 -17 5 -81 -46 -81 -64 0 -5
-16 -10 -35 -10 -22 0 -38 -6 -41 -15 -4 -8 -10 -15 -16 -15 -5 0 -7 4 -4 9 3
4 -28 14 -69 20 -40 7 -75 17 -77 22 -2 6 -42 15 -88 21 -97 13 -273 0 -425
-32 -49 -10 -124 -21 -166 -24 -42 -3 -118 -12 -170 -21 -292 -47 -288 -46
-446 -52 -116 -4 -143 -2 -235 21 -135 33 -205 59 -270 97 -29 18 -159 85
-288 150 -210 105 -427 234 -460 274 -6 8 -14 32 -17 55 -4 31 -1 47 18 74 37
55 148 78 189 39z"/>
<path d="M3467 5993 c-14 -14 -7 -128 9 -152 22 -31 34 -12 34 56 0 70 -22
118 -43 96z"/>
<path d="M8604 5941 c-46 -12 -137 -66 -221 -134 -131 -106 -254 -280 -308
-438 l-29 -86 -105 84 c-93 74 -110 83 -136 78 -51 -10 -54 -24 -11 -58 22
-18 80 -66 129 -107 124 -105 127 -106 162 -89 24 12 31 26 52 102 31 119 71
210 129 299 68 103 202 233 302 291 45 27 80 53 77 58 -4 5 -7 9 -8 8 -1 -1
-16 -4 -33 -8z"/>
<path d="M3829 5873 c-45 -42 -89 -117 -76 -130 25 -24 132 103 125 148 -3 23
-5 23 -49 -18z"/>
<path d="M7961 5850 c-115 -24 -251 -121 -308 -218 -78 -133 -84 -300 -15
-440 120 -247 437 -329 670 -175 142 95 223 283 194 451 -12 71 -74 210 -98
219 -28 11 -26 -6 10 -64 105 -172 81 -387 -61 -529 -212 -213 -566 -150 -697
126 -29 60 -31 73 -31 175 0 103 2 114 32 178 100 211 332 307 548 226 59 -22
85 -18 50 7 -51 38 -210 61 -294 44z"/>
<path d="M3140 5841 c0 -18 55 -75 99 -103 49 -30 71 -35 71 -15 0 14 -69 83
-110 111 -27 17 -60 21 -60 7z"/>
<path d="M3431 5743 c-61 -22 -133 -96 -154 -158 -35 -101 -16 -179 75 -303
64 -88 97 -162 98 -218 0 -17 6 -31 13 -32 99 -14 134 -13 146 2 12 14 9 18
-25 32 -20 9 -55 14 -76 12 -34 -3 -38 -1 -38 19 0 20 2 21 31 11 17 -6 46 -8
65 -5 30 5 34 3 34 -16 0 -30 15 -7 36 58 9 28 43 109 75 182 70 156 76 206
33 291 -58 117 -188 169 -313 125z m179 -38 c37 -19 77 -65 94 -107 27 -63 20
-125 -24 -236 -22 -56 -49 -132 -58 -171 -17 -67 -19 -69 -36 -53 -12 12 -33
17 -71 16 -51 0 -55 2 -60 27 -3 14 -33 69 -65 120 -72 114 -89 175 -72 256
18 85 65 136 152 164 31 10 107 1 140 -16z"/>
<path d="M3920 5629 c-97 -46 -128 -79 -72 -79 51 1 172 67 172 96 0 22 -29
17 -100 -17z"/>
<path d="M5245 5594 c3 -26 9 -53 12 -60 4 -11 -6 -14 -38 -14 -24 0 -111 -16
-192 -36 l-148 -36 -22 20 c-64 58 -132 65 -300 28 -120 -26 -134 -34 -118
-64 12 -22 72 -77 93 -84 10 -4 9 -13 -6 -44 -10 -21 -21 -67 -24 -101 -6 -77
-4 -77 125 -32 109 39 172 70 200 101 26 28 53 92 53 124 0 31 9 34 204 73 87
17 162 33 166 36 5 3 14 -21 20 -52 6 -32 12 -61 13 -65 2 -10 198 137 199
149 0 8 -51 30 -181 79 l-63 24 7 -46z"/>
<path d="M6144 5621 c-45 -27 -46 -33 -23 -85 31 -72 14 -99 -74 -114 l-42 -8
0 -48 0 -49 50 -1 c45 -1 51 -4 64 -30 17 -37 17 -71 0 -103 -12 -23 -11 -27
14 -49 39 -34 62 -30 106 16 57 60 89 54 136 -25 10 -16 15 -16 49 -5 48 15
52 28 25 74 -15 26 -19 44 -14 64 10 41 24 52 63 52 33 0 34 -1 19 -18 -16
-17 -15 -20 3 -40 l21 -22 40 20 c30 16 44 18 59 10 23 -13 40 -41 40 -69 0
-22 27 -41 59 -41 18 0 21 6 21 45 0 57 25 73 86 56 35 -10 41 -9 57 10 23 29
22 34 -13 59 -42 30 -42 80 -1 109 54 38 10 97 -47 64 -28 -16 -31 -16 -55 0
-19 12 -27 27 -29 54 -3 33 -7 38 -30 41 -41 5 -68 -14 -68 -48 0 -18 -8 -34
-21 -44 -19 -13 -25 -13 -50 -1 -24 13 -30 13 -43 -1 -16 -16 -19 -26 -17 -55
3 -25 -56 -11 -79 19 -24 29 -26 61 -5 88 19 26 19 48 -2 66 -36 30 -52 29
-86 -8 -17 -20 -39 -40 -49 -45 -26 -14 -75 9 -97 47 -24 40 -26 40 -67 15z
m280 -22 c13 -19 12 -24 -5 -53 -18 -31 -18 -33 -1 -64 23 -41 59 -82 74 -83
7 -1 25 0 41 1 22 1 27 -3 27 -22 0 -28 -17 -48 -35 -41 -21 7 -102 -33 -115
-56 -9 -18 -6 -30 16 -71 22 -41 25 -52 14 -65 -19 -23 -43 -17 -65 17 -13 22
-31 34 -53 39 -40 8 -88 -3 -84 -20 1 -7 -2 -10 -7 -7 -5 4 -20 -8 -32 -25
l-22 -32 -24 27 c-18 21 -21 31 -13 46 5 10 10 35 10 55 0 50 -47 99 -91 93
-36 -6 -50 9 -38 40 9 23 14 26 62 36 61 14 87 84 52 146 -9 18 -10 29 -3 37
20 24 47 14 62 -22 23 -54 53 -62 113 -32 28 15 54 36 61 51 14 31 36 33 56 5z
m-164 -52 c9 -4 5 -6 -9 -4 -13 1 -31 13 -39 27 l-16 25 24 -21 c14 -12 32
-24 40 -27z m488 -4 c2 -21 13 -40 30 -54 26 -21 26 -21 3 -14 -16 5 -21 4
-17 -4 10 -16 53 -13 82 6 24 15 26 15 42 -1 16 -16 16 -18 -4 -34 -47 -37
-58 -100 -23 -124 27 -17 18 -64 -9 -53 -39 17 -50 15 -81 -11 -24 -20 -31
-34 -29 -53 2 -19 -2 -27 -16 -29 -21 -5 -36 13 -36 45 0 44 -87 82 -117 52
-13 -13 -33 -4 -33 16 0 7 11 22 25 32 16 11 28 32 31 55 6 34 4 39 -25 55
-42 24 -37 49 9 46 72 -5 110 18 110 67 0 51 53 53 58 3z m-71 -20 c-3 -10 -5
-4 -5 12 0 17 2 24 5 18 2 -7 2 -21 0 -30z m-96 -160 c-12 -20 -14 -14 -5 12
4 9 9 14 11 11 3 -2 0 -13 -6 -23z m311 -95 c-8 -8 -9 -4 -5 13 4 13 8 18 11
10 2 -7 -1 -18 -6 -23z m-358 -4 c3 -8 2 -12 -4 -9 -6 3 -10 10 -10 16 0 14 7
11 14 -7z"/>
<path d="M6222 5480 c-78 -48 -83 -189 -8 -229 50 -27 160 10 184 63 34 76 16
138 -51 169 -46 22 -85 21 -125 -3z m1 -25 l-28 -25 45 25 c70 39 116 31 145
-25 19 -36 19 -69 0 -94 -8 -10 -12 -22 -10 -26 3 -4 -2 -13 -10 -20 -8 -7
-15 -9 -15 -5 0 4 -10 1 -22 -7 -13 -8 -40 -18 -61 -21 -31 -5 -42 -1 -65 20
l-27 25 29 -21 c41 -30 53 -26 16 6 -43 35 -51 60 -34 102 8 19 12 36 9 39 -6
7 35 52 47 52 5 0 -4 -11 -19 -25z"/>
<path d="M6726 5526 c9 -25 21 -46 26 -46 7 0 7 4 0 13 -6 6 -12 25 -14 41 -1
16 -8 31 -15 33 -9 3 -8 -8 3 -41z"/>
<path d="M6673 5458 c-24 -12 -53 -64 -53 -98 0 -47 49 -90 103 -90 31 0 84
48 93 85 19 74 -70 138 -143 103z m87 -8 c8 -5 11 -10 5 -10 -5 0 -17 5 -25
10 -8 5 -10 10 -5 10 6 0 17 -5 25 -10z m-2 -20 c47 -21 54 -47 27 -99 -24
-46 -74 -55 -119 -20 -33 26 -37 88 -6 119 25 25 43 25 98 0z"/>
<path d="M3020 5601 c0 -25 132 -101 175 -101 34 0 32 14 -7 43 -71 53 -168
86 -168 58z"/>
<path d="M11100 5063 c-24 -28 -12 -61 38 -109 70 -67 120 -59 105 19 -13 68
-48 107 -97 107 -18 0 -38 -8 -46 -17z"/>
<path d="M3460 4990 c-13 -8 -13 -12 3 -27 24 -24 142 -26 142 -3 0 28 -111
52 -145 30z"/>
<path d="M5133 4868 c-13 -22 -12 -39 2 -44 8 -3 11 -13 8 -22 -4 -13 -2 -12
10 3 18 22 23 50 7 40 -6 -4 -7 -11 -4 -17 4 -6 2 -8 -4 -5 -5 4 -9 18 -7 32
3 28 0 31 -12 13z"/>
<path d="M4440 4842 c0 -5 -11 -14 -25 -20 -21 -10 -23 -9 -18 6 6 14 4 15 -9
4 -13 -10 -17 -10 -20 0 -7 21 -38 -17 -38 -46 0 -32 35 -37 45 -6 5 15 12 19
30 14 19 -5 27 0 40 25 9 17 11 31 5 31 -5 0 -10 -4 -10 -8z"/>
<path d="M4554 4833 c-23 -23 -44 -26 -37 -5 6 15 4 15 -13 0 -15 -14 -23 -15
-32 -6 -9 9 -14 6 -21 -13 -5 -13 -5 -28 0 -33 4 -5 3 -18 -4 -30 -6 -12 -11
-24 -12 -28 0 -3 -3 -10 -7 -14 -5 -4 -8 -21 -7 -38 0 -26 2 -28 9 -11 7 17 9
15 9 -12 1 -17 -3 -35 -9 -38 -5 -3 -10 -16 -9 -28 0 -15 2 -17 6 -7 8 20 43
65 43 54 -1 -5 -7 -20 -15 -34 -21 -36 -19 -59 4 -53 20 5 45 49 36 63 -3 5 1
24 9 42 l14 33 1 -40 c1 -23 -3 -45 -8 -50 -18 -20 -22 -52 -7 -52 9 0 13 4
10 8 -2 4 0 11 6 14 17 10 10 137 -6 131 -7 -3 -16 0 -20 6 -4 6 -3 8 3 5 6
-4 10 7 11 24 1 37 2 38 38 45 16 3 31 9 34 13 3 4 13 10 23 14 25 9 21 32 -8
45 -20 9 -27 8 -41 -5z"/>
<path d="M4386 4773 c-6 -14 -5 -15 5 -6 7 7 10 15 7 18 -3 3 -9 -2 -12 -12z"/>
<path d="M5140 4762 c0 -6 -7 -9 -16 -5 -9 3 -20 0 -25 -8 -13 -21 -11 -37 6
-35 18 3 50 44 41 53 -3 4 -6 1 -6 -5z"/>
<path d="M4669 4748 c-1 -7 -1 -16 -1 -19 1 -4 -11 -17 -26 -30 l-27 -24 24
28 c14 15 20 27 14 27 -23 0 -79 -82 -68 -100 3 -6 1 -10 -4 -10 -6 0 -11 -5
-11 -12 0 -6 9 -3 20 7 24 21 26 9 5 -23 -14 -19 -14 -24 0 -45 8 -13 31 -29
51 -35 29 -9 33 -8 24 3 -8 10 -7 16 7 25 16 10 15 10 -4 5 -19 -5 -22 -3 -17
12 5 17 5 17 -6 1 -12 -19 -40 -25 -40 -8 0 6 5 10 11 10 6 0 9 6 6 13 -2 6 0
20 5 31 8 14 7 17 -4 10 -15 -9 -14 -8 41 62 27 35 36 40 62 36 25 -4 31 -11
41 -48 7 -25 16 -40 22 -37 6 4 0 -7 -14 -23 -43 -50 -58 -63 -64 -57 -3 4 -6
-1 -6 -11 0 -9 -4 -14 -10 -11 -5 3 -10 1 -10 -5 0 -20 67 -4 99 23 17 14 27
28 23 32 -4 3 1 11 11 16 9 6 17 15 17 20 0 6 -5 7 -11 3 -9 -5 -10 1 -5 21 5
18 2 35 -9 51 -8 13 -12 24 -9 24 4 0 -5 11 -20 25 -32 30 -30 29 -62 9 -23
-16 -24 -16 -17 2 6 17 5 18 -12 4 -11 -9 -16 -10 -11 -2 4 6 2 12 -3 12 -6 0
-12 -6 -12 -12z m-54 -178 c-3 -5 -11 -10 -16 -10 -6 0 -7 5 -4 10 3 6 11 10
16 10 6 0 7 -4 4 -10z"/>
<path d="M5025 4733 l-17 -28 23 22 c12 12 20 25 17 28 -3 3 -13 -7 -23 -22z"/>
<path d="M5065 4740 c-10 -11 -13 -20 -8 -20 13 0 38 29 31 35 -3 3 -13 -4
-23 -15z"/>
<path d="M5247 4702 c-26 -27 -44 -51 -41 -55 4 -4 2 -7 -4 -7 -6 0 -10 -9 -9
-19 0 -11 6 -17 14 -14 18 7 16 -12 -3 -32 -15 -15 -15 -18 6 -40 22 -23 60
-40 60 -26 0 5 10 13 23 19 17 8 18 11 5 11 -9 1 -20 -4 -23 -9 -5 -8 -11 -8
-20 0 -10 8 -14 7 -17 -2 -3 -8 -9 -5 -17 9 -10 19 -8 24 9 35 11 7 20 22 20
34 0 12 14 40 30 63 26 36 34 40 58 35 37 -9 52 -31 52 -75 0 -39 -43 -105
-61 -93 -5 3 -9 -2 -9 -11 0 -9 -4 -13 -10 -10 -5 3 -10 1 -10 -5 0 -19 64 -7
95 19 17 13 29 28 27 33 -1 5 5 11 13 14 8 4 15 10 15 16 0 5 -4 6 -10 3 -6
-4 -7 11 -4 39 5 33 3 46 -6 46 -7 0 -10 7 -6 15 3 9 0 15 -9 15 -8 0 -15 4
-15 10 0 5 -9 14 -21 20 -16 9 -25 8 -40 -6 -17 -15 -19 -15 -19 -1 0 10 -14
1 -40 -25 -22 -23 -40 -37 -40 -33 0 5 15 21 33 36 17 15 29 30 26 33 -3 3
-26 -16 -52 -42z"/>
<path d="M4968 4718 c-7 -13 -13 -27 -13 -33 -2 -18 -18 -50 -29 -57 -8 -5 -7
-8 1 -8 14 0 53 61 59 95 5 31 -1 32 -18 3z"/>
<path d="M8200 4729 c0 -5 5 -7 10 -4 6 3 10 8 10 11 0 2 -4 4 -10 4 -5 0 -10
-5 -10 -11z"/>
<path d="M5127 4712 c-19 -20 -23 -62 -7 -62 9 0 14 15 11 33 -1 5 3 6 9 2 6
-4 10 4 10 19 0 31 -2 31 -23 8z"/>
<path d="M8249 4703 c-13 -16 -12 -17 4 -4 9 7 17 15 17 17 0 8 -8 3 -21 -13z"/>
<path d="M8250 4670 c0 -5 -7 -10 -15 -10 -8 0 -15 -9 -15 -19 0 -11 -6 -22
-12 -24 -7 -3 -8 -6 -2 -6 15 -1 54 37 54 54 0 8 -2 15 -5 15 -3 0 -5 -4 -5
-10z"/>
<path d="M8436 4653 c-6 -14 -5 -15 5 -6 7 7 10 15 7 18 -3 3 -9 -2 -12 -12z"/>
<path d="M5126 4632 c-8 -15 -13 -43 -12 -62 2 -19 4 -43 5 -52 0 -10 8 -18
17 -18 8 0 13 4 10 9 -3 5 0 8 7 7 14 -1 17 5 16 42 0 22 -2 23 -8 8 -7 -17
-8 -17 -24 -2 -22 23 -21 39 3 61 21 19 26 35 10 35 -5 0 -16 -13 -24 -28z"/>
<path d="M8585 4650 c-3 -5 -1 -10 4 -10 6 0 11 5 11 10 0 6 -2 10 -4 10 -3 0
-8 -4 -11 -10z"/>
<path d="M8450 4635 c-10 -13 -9 -15 9 -15 12 0 20 4 16 9 -3 6 12 12 32 14
l38 4 -41 1 c-26 1 -46 -3 -54 -13z"/>
<path d="M4956 4614 c-4 -9 -4 -19 -1 -22 2 -3 7 3 11 12 4 9 4 19 1 22 -2 3
-7 -3 -11 -12z"/>
<path d="M8598 4623 c7 -3 16 -2 19 1 4 3 -2 6 -13 5 -11 0 -14 -3 -6 -6z"/>
<path d="M7700 4605 c-8 -9 -8 -15 -2 -15 12 0 26 19 19 26 -2 2 -10 -2 -17
-11z"/>
<path d="M7715 4568 l-50 -53 53 50 c48 46 57 55 49 55 -1 0 -25 -24 -52 -52z"/>
<path d="M7596 4601 c-4 -5 3 -7 14 -4 23 6 26 13 6 13 -8 0 -17 -4 -20 -9z"/>
<path d="M8432 4590 c0 -14 2 -19 5 -12 2 6 2 18 0 25 -3 6 -5 1 -5 -13z"/>
<path d="M4992 4560 c7 -11 17 -20 22 -20 5 0 1 9 -9 20 -10 11 -20 20 -22 20
-2 0 2 -9 9 -20z"/>
<path d="M8105 4555 c-16 -14 -25 -25 -19 -25 6 0 21 11 34 25 30 32 24 31
-15 0z"/>
<path d="M7744 4555 c-10 -8 -14 -15 -8 -15 5 0 19 7 30 15 10 8 14 15 8 15
-5 0 -19 -7 -30 -15z"/>
<path d="M8365 4561 c-3 -5 -1 -12 4 -15 5 -3 11 1 15 9 6 16 -9 21 -19 6z"/>
<path d="M5033 4526 c0 -11 5 -13 19 -5 17 9 22 5 19 -14 -1 -5 3 -6 8 -2 6 3
8 12 4 20 -7 19 -50 20 -50 1z"/>
<path d="M5090 4531 c0 -6 5 -13 10 -16 6 -3 10 1 10 9 0 9 -4 16 -10 16 -5 0
-10 -4 -10 -9z"/>
<path d="M6498 2423 l-66 -4 20 -47 c12 -26 32 -64 45 -84 15 -22 24 -48 22
-65 -2 -15 4 -39 13 -53 9 -14 26 -61 38 -105 57 -214 91 -290 170 -382 33
-37 87 -108 121 -158 79 -115 98 -135 123 -135 12 0 73 34 136 76 140 92 200
123 308 158 45 15 82 31 82 36 0 5 -13 11 -29 15 -34 7 -88 -9 -182 -55 -64
-31 -109 -34 -109 -7 0 8 11 42 26 76 14 35 23 66 20 69 -3 2 -28 0 -56 -5
-27 -6 -50 -7 -50 -2 0 19 93 85 174 124 85 40 88 42 60 50 -16 4 -44 9 -63
10 -20 2 -39 12 -48 24 -8 12 -22 21 -32 21 -10 0 -24 7 -31 15 -6 8 -21 17
-32 21 -21 6 -52 29 -72 52 -24 28 -44 48 -74 72 -17 14 -31 31 -32 38 0 6 -3
11 -7 11 -21 -3 -33 2 -33 16 0 8 -9 29 -20 47 -25 42 -25 58 2 105 18 30 19
35 5 24 -10 -8 -20 -11 -23 -8 -10 9 25 40 39 34 7 -2 18 2 25 9 11 12 -19 14
-195 12 -114 -1 -238 -3 -275 -5z"/>
<path d="M6345 2210 c-17 -7 -16 -9 10 -9 17 0 39 4 50 9 17 7 16 9 -10 9 -16
0 -39 -4 -50 -9z"/>
<path d="M6430 2210 c0 -6 17 -10 37 -10 43 0 41 5 -4 13 -19 4 -33 2 -33 -3z"/>
<path d="M6168 1293 c7 -3 16 -2 19 1 4 3 -2 6 -13 5 -11 0 -14 -3 -6 -6z"/>
<path d="M6171 223 c-5 -10 -13 -17 -18 -15 -4 2 -9 -4 -11 -12 -2 -9 2 -16 8
-16 6 0 8 5 4 12 -4 7 -3 8 5 4 6 -4 9 -11 6 -15 -2 -5 18 -9 45 -10 52 -1 74
14 47 34 -9 7 -13 16 -9 21 4 4 -1 2 -10 -5 -15 -12 -18 -11 -18 3 0 9 -5 16
-10 16 -6 0 -10 -6 -8 -14 2 -8 -1 -14 -7 -13 -5 1 -9 8 -7 15 4 18 -5 15 -17
-5z"/>
<path d="M6280 186 c0 -9 -5 -16 -11 -16 -5 0 -8 -4 -5 -9 3 -4 -5 -7 -17 -5
-78 11 -110 12 -96 3 9 -6 10 -9 2 -9 -33 0 12 -35 69 -54 25 -8 11 -35 -16
-32 -12 1 -27 5 -32 9 -6 3 -19 0 -30 -7 -16 -12 -16 -16 -4 -31 13 -16 15
-16 21 2 6 15 8 15 8 2 2 -29 51 -40 170 -37 l113 3 -50 25 c-28 14 -48 29
-45 33 3 4 -1 15 -9 24 -7 9 -13 19 -13 22 0 3 -6 5 -13 4 -8 0 -11 5 -8 14 5
11 1 13 -15 8 -17 -6 -20 -4 -13 6 13 21 15 47 4 54 -6 3 -10 -1 -10 -9z m13
-83 c-7 -2 -13 -11 -13 -19 0 -12 -3 -12 -14 -2 -12 11 -11 14 3 20 9 4 21 7
26 7 6 -1 4 -3 -2 -6z m37 -23 c0 -5 -2 -10 -4 -10 -3 0 -8 5 -11 10 -3 6 -1
10 4 10 6 0 11 -4 11 -10z"/>
<path d="M5820 176 c0 -8 -5 -27 -11 -43 -6 -15 -13 -39 -15 -53 -2 -14 -5
-37 -7 -53 -4 -26 -3 -27 39 -27 50 0 51 1 30 96 -7 33 -12 68 -10 77 1 9 -4
17 -12 17 -8 0 -14 -6 -14 -14z"/>
<path d="M6315 160 c3 -5 8 -10 11 -10 2 0 4 5 4 10 0 6 -5 10 -11 10 -5 0 -7
-4 -4 -10z"/>
<path d="M8138 103 c34 -2 90 -2 125 0 34 2 6 3 -63 3 -69 0 -97 -1 -62 -3z"/>
</g>
</svg>
